<svg height="512" width="512" xmlns="http://www.w3.org/2000/svg"><path d="M508.843 108.918L487.63 87.706l-26.24 26.24c-17.195-9.879-39.569-7.49-54.246 7.188l-8.856 8.856V0H82.274L3.157 79.117V512h395.131V266.533l77.128-77.128c14.678-14.678 17.068-37.052 7.188-54.247zm-296.32 253.808l21.3 21.3-36.915 15.615zm44.786 2.359l-25.845-25.844 165.073-165.074 25.845 25.845zM90.447 34.253V87.29H37.41zM368.288 482H33.157V117.29h87.29V30h247.841v129.99l-47.3 47.3H79.873v30h211.115l-30 30H79.873v30h151.115l-40.483 40.483-26.095 61.692-20.966-20.965-33.5 33.5H63.157v30h59.213l21.074-21.074 23.831 23.822 91.501-38.704 109.512-109.512zm85.915-313.808l-10.607 10.607-25.845-25.846 10.607-10.607c5.85-5.848 15.364-5.849 21.214 0l4.632 4.632c5.847 5.849 5.847 15.365-.001 21.214z"/><path d="M122.116 147.29h157.213v30H122.116z"/></svg>