<svg xmlns="http://www.w3.org/2000/svg"><path d="M118.848 394.103c-5.523 0-10.028-4.477-10.028-10s4.449-10 9.972-10h.057c5.523 0 10 4.477 10 10s-4.478 10-10.001 10z"/><path d="M496.835 346.067v-86.338c0-1.239-.24-2.509-.694-3.662l-50.002-127.06a10 10 0 00-9.306-6.338h-95.844V80.686c0-5.523-4.478-10-10-10H206.437c-5.523 0-10 4.477-10 10s4.477 10 10 10h114.552v31.984h-28.494c-5.522 0-10 4.477-10 10v211.312H159.282c-10.313-10.541-24.64-17.09-40.462-17.09s-30.148 6.55-40.462 17.09H35.165v-143.87h131.736v16.578a10.002 10.002 0 009.999 10c2.04 0 4.07-.624 5.795-1.85l65.366-46.469a10 10 0 000-16.3l-65.366-46.469a10.002 10.002 0 00-15.794 8.151v16.578H35.165V90.686h81.472c5.523 0 10-4.477 10-10s-4.477-10-10-10H25.165c-5.523 0-10 4.477-10 10v265.381C6.251 349.958 0 358.879 0 369.242v10.631c0 13.944 11.289 25.289 25.165 25.289h40.834c8.35 21.152 28.872 36.152 52.821 36.152s44.471-15 52.821-36.152h154.347c8.35 21.152 28.871 36.152 52.821 36.152s44.47-15 52.821-36.152h55.206c13.876 0 25.165-11.345 25.165-25.289v-10.631c-.001-10.363-6.252-19.284-15.166-23.175zM35.165 160.331h141.736c5.523 0 10-4.477 10-10v-7.2l38.107 27.09-38.107 27.09v-7.2c0-5.523-4.477-10-10-10H35.165zm26.854 224.832H25.165c-2.8 0-5.165-2.422-5.165-5.289v-10.631c0-2.852 2.365-5.261 5.165-5.261h40.466a57.246 57.246 0 00-3.638 20.122c0 .354.02.705.026 1.059zm56.801 36.151c-20.307 0-36.827-16.693-36.827-37.211s16.521-37.212 36.827-37.212 36.828 16.693 36.828 37.212-16.522 37.211-36.828 37.211zm353.333-171.585H370.752v-64.707h75.937zm-169.658-107.06h127.526l8.797 22.354h-78.066c-5.522 0-10 4.477-10 10v84.707c0 5.523 4.478 10 10 10h116.083v27.126h-14.718c-5.522 0-10 4.477-10 10s4.478 10 10 10h14.718v27.126h-57.564c-10.313-10.541-24.64-17.09-40.462-17.09s-30.149 6.55-40.462 17.09h-35.852zM175.621 385.163c.006-.354.027-.704.027-1.06a57.277 57.277 0 00-3.638-20.122h153.61a57.269 57.269 0 00-3.638 20.122c0 .355.02.706.027 1.06zm203.188 36.151c-20.307 0-36.827-16.693-36.827-37.211s16.521-37.212 36.827-37.212 36.827 16.693 36.827 37.212-16.521 37.211-36.827 37.211zM492 379.874c0 2.867-2.365 5.289-5.165 5.289h-51.226c.006-.354.027-.704.027-1.06a57.277 57.277 0 00-3.638-20.122h54.838c2.8 0 5.165 2.409 5.165 5.261v10.632z"/><path d="M378.837 374.103h-.057c-5.522 0-9.972 4.477-9.972 10s4.506 10 10.028 10 10-4.477 10-10-4.477-10-9.999-10zM70.49 286.739c-5.523 0-10 4.477-10 10s4.477 10 10 10h49.152c5.523 0 10-4.477 10-10s-4.477-10-10-10zM159.632 256.271c0-5.523-4.477-10-10-10H70.49c-5.523 0-10 4.477-10 10s4.477 10 10 10h79.142c5.523 0 10-4.477 10-10zM161.537 90.686h.028c5.523 0 9.986-4.477 9.986-10s-4.491-10-10.014-10-10 4.477-10 10 4.477 10 10 10z"/></svg>