<svg height="512" width="512" xmlns="http://www.w3.org/2000/svg"><path d="M29.657 258.343A8 8 0 0016 264v224a8 8 0 008 8h224a8 8 0 005.657-13.657zM32 480V283.313L228.687 480z"/><path d="M72 448h64a8 8 0 005.657-13.657l-64-64A8 8 0 0064 376v64a8 8 0 008 8zm8-52.686L116.687 432H80zM104 48h16v16h-16zM136 48h16v16h-16zM168 48h16v16h-16zM180.756 160.7A7.884 7.884 0 00176 168v88a8 8 0 004.751 7.311l72 32a7.968 7.968 0 006.5-.006v.006l72-32A8 8 0 00336 256v-88a7.884 7.884 0 00-4.756-7.3v-.011l-72-32a8.01 8.01 0 00-6.5 0l-72 32zM248 275.69l-56-24.89v-70.49l56 24.89zm72-24.89l-56 24.89V205.2l56-24.889zm-64-106.046L308.3 168 256 191.245 203.7 168zM248 320h16v40h-16zM248 72h16v40h-16zM116.507 151.268l6.896-14.432 33.487 16.001-6.896 14.432zM354.927 152.721l33.486-16 6.896 14.432-33.486 16zM116.505 280.693l33.486-16 6.896 14.431-33.486 16.001z"/><path d="M488 384h-48V259.314l47.03-47.03a30.627 30.627 0 10-43.314-43.313L440 172.687V104a8 8 0 00-2.343-5.657l-80-80A8 8 0 00352 16H104a32.036 32.036 0 00-32 32v232h16V48a16.019 16.019 0 0116-16h240v48a32.036 32.036 0 0032 32h48v76.686L298.343 314.343a8.008 8.008 0 00-2.188 4.088l-8 40a8 8 0 009.414 9.414l40-8a8 8 0 004.088-2.188L424 275.314V384H264a8 8 0 00-8 8v24h-40v16h40v24a8 8 0 008 8h224a8 8 0 008-8v-64a8 8 0 00-8-8zM360 80V43.314L412.686 96H376a16.019 16.019 0 01-16-16zm-44.686 240L440 195.314 460.686 216 336 340.686zm150.059-144a14.628 14.628 0 0110.343 24.971L472 204.686 451.314 184l3.716-3.716A14.529 14.529 0 01465.373 176zm-156.46 160.227l10.86 10.86L306.2 349.8zM480 448H272v-48h16v16h16v-16h16v16h16v-16h16v16h16v-16h16v16h16v-16h16v16h16v-16h16v16h16v-16h16z"/></svg>