<svg xmlns="http://www.w3.org/2000/svg" viewBox="0 0 512 512"><path d="M309.126 158.729c-4.505-3.195-10.747-2.137-13.943 2.368l-.194.273c-3.196 4.504-2.136 10.746 2.368 13.942a9.959 9.959 0 005.779 1.846 9.987 9.987 0 008.164-4.214l.194-.273c3.196-4.504 2.136-10.746-2.368-13.942zM286.344 187.069c-3.502-4.271-9.803-4.892-14.073-1.389-13.893 11.396-29.68 19.508-46.923 24.112-5.336 1.425-8.507 6.905-7.082 12.241 1.194 4.472 5.236 7.423 9.655 7.423a9.96 9.96 0 002.586-.342c20.017-5.345 38.335-14.756 54.447-27.972 4.271-3.502 4.893-9.804 1.39-14.073z"/><path d="M482 226.47c-16.542 0-30 13.458-30 29.999v5.001c0 41.937-30.535 76.854-70.535 83.743a47.931 47.931 0 008.28-26.984v-6.946c0-26.58-21.625-48.204-48.205-48.204s-48.204 21.624-48.204 48.204v6.946c0 9.736 2.91 18.8 7.893 26.387-38.429-8.146-67.357-42.326-67.357-83.146v-5.001c0-16.541-13.458-29.999-30-29.999s-30 13.458-30 29.999v5.001c0 20.297 4.13 39.926 12.098 58.061H117.927V218.823a9.997 9.997 0 00-7.25-9.614C57.288 193.94 20 144.509 20 89v-5c0-5.514 4.486-10 10-10s10 4.486 10 10v5c0 57.897 47.103 105 105 105h48.127c57.897 0 105-47.103 105-105v-5c0-5.514 4.486-10 10-10s10 4.486 10 10v5c0 15.371-2.769 30.386-8.231 44.625-1.978 5.156.599 10.94 5.756 12.918 5.154 1.979 10.94-.6 12.918-5.756 6.342-16.534 9.557-33.958 9.557-51.787v-5c0-16.542-13.458-30-30-30s-30 13.458-30 30v5c0 41.936-30.535 76.853-70.534 83.743a47.926 47.926 0 008.279-26.982v-6.946c0-26.58-21.625-48.205-48.205-48.205s-48.204 21.625-48.204 48.205v6.946c0 9.735 2.91 18.799 7.893 26.385C88.927 164 60 129.82 60 89v-5c0-16.542-13.458-30-30-30S0 67.458 0 84v5c0 32.106 10.322 62.548 29.849 88.033 17.344 22.635 41.309 39.875 68.079 49.118V329.53c0 5.522 4.477 10 10 10h1.826V502c0 5.522 4.477 10 10 10s10-4.478 10-10V339.53h66.96a148.211 148.211 0 007.008 9.972c.662.864 1.351 1.704 2.032 2.552V502c0 5.522 4.477 10 10 10s10-4.478 10-10V372.49c13.625 11.419 29.286 20.342 46.047 26.13V502c0 5.522 4.477 10 10 10s10-4.478 10-10V391.292a9.997 9.997 0 00-7.25-9.614c-53.39-15.269-90.678-64.699-90.678-120.208v-5.001c0-5.514 4.486-9.999 10-9.999s10 4.485 10 9.999v5.001c0 57.897 47.103 105 105 105H367c57.897 0 105-47.103 105-105v-5.001c0-5.514 4.486-9.999 10-9.999s10 4.485 10 9.999v5.001c0 56.534-38.152 106.205-92.778 120.791a9.999 9.999 0 00-7.42 9.661v72.411c0 5.522 4.477 10 10 10s10-4.478 10-10V399.39C471.176 380.101 512 324.459 512 261.47v-5.001c0-16.541-13.458-29.999-30-29.999zm-342.537-87.656c0-15.553 12.652-28.205 28.204-28.205s28.205 12.652 28.205 28.205v6.946c0 15.552-12.652 28.204-28.205 28.204-15.552 0-28.204-12.652-28.204-28.204v-6.946zm230.282 179.415c0 15.552-12.652 28.204-28.205 28.204-15.552 0-28.204-12.652-28.204-28.204v-6.946c0-15.552 12.652-28.204 28.204-28.204s28.205 12.652 28.205 28.204v6.946zM408.87 494.93c-1.86-1.861-4.44-2.93-7.07-2.93s-5.21 1.069-7.07 2.93c-1.86 1.86-2.93 4.44-2.93 7.07s1.07 5.21 2.93 7.069c1.86 1.86 4.44 2.931 7.07 2.931s5.21-1.07 7.07-2.931c1.86-1.859 2.93-4.439 2.93-7.069s-1.07-5.21-2.93-7.07z"/><path d="M167.667 374c-5.523 0-10 4.478-10 10v118c0 5.522 4.477 10 10 10s10-4.478 10-10V384c0-5.522-4.477-10-10-10zM466 82c-5.523 0-10 4.478-10 10v12.43c0 5.522 4.477 10 10 10s10-4.478 10-10V92c0-5.522-4.477-10-10-10zM466 141.57c-5.523 0-10 4.478-10 10V164c0 5.522 4.477 10 10 10s10-4.478 10-10v-12.43c0-5.522-4.477-10-10-10zM502 118h-12.43c-5.523 0-10 4.478-10 10s4.477 10 10 10H502c5.523 0 10-4.478 10-10s-4.477-10-10-10zM442.43 118H430c-5.523 0-10 4.478-10 10s4.477 10 10 10h12.43c5.523 0 10-4.478 10-10s-4.477-10-10-10zM219.873 0c-5.523 0-10 4.478-10 10v12.43c0 5.522 4.477 10 10 10s10-4.478 10-10V10c0-5.522-4.477-10-10-10zM219.873 59.57c-5.523 0-10 4.478-10 10V82c0 5.522 4.477 10 10 10s10-4.478 10-10V69.57c0-5.522-4.477-10-10-10zM255.873 36h-12.43c-5.523 0-10 4.478-10 10s4.477 10 10 10h12.43c5.523 0 10-4.478 10-10s-4.477-10-10-10zM196.303 36h-12.43c-5.523 0-10 4.478-10 10s4.477 10 10 10h12.43c5.523 0 10-4.478 10-10s-4.477-10-10-10z"/></svg>