<svg height="661pt" viewBox="-20 -40 661.333 661" width="661pt" xmlns="http://www.w3.org/2000/svg"><path d="M10 248.832h55.477a148.72 148.72 0 0014.085 33.883l-39.265 39.25a10.002 10.002 0 000 14.148l42.422 42.434c3.906 3.898 10.234 3.898 14.14 0l39.27-39.274A148.62 148.62 0 00170 353.355v55.477c0 5.523 4.477 10 10 10h60c5.523 0 10-4.477 10-10v-55.477a148.62 148.62 0 0033.871-14.082l39.27 39.274c3.968 3.75 10.175 3.75 14.14 0l42.43-42.434a10.002 10.002 0 000-14.148l-39.274-39.25a148.72 148.72 0 0014.086-33.883H410c5.523 0 10-4.477 10-10v-60c0-5.52-4.477-10-10-10h-55.477a148.764 148.764 0 00-14.086-33.879l39.266-39.25a10.002 10.002 0 000-14.148L337.281 39.12c-3.906-3.902-10.234-3.902-14.14 0l-39.27 39.274A149.046 149.046 0 00250 64.312V8.832c0-5.52-4.477-10-10-10h-60c-5.523 0-10 4.48-10 10v55.48a149.046 149.046 0 00-33.871 14.083L96.859 39.12c-3.968-3.75-10.175-3.75-14.14 0l-42.43 42.434a10.002 10.002 0 000 14.148l39.273 39.25a148.764 148.764 0 00-14.085 33.879H10c-5.523 0-10 4.48-10 10v60c0 5.523 4.477 10 10 10zm10-60h53.3c4.7 0 8.766-3.27 9.77-7.86a128.657 128.657 0 0117.52-42.14 10.002 10.002 0 00-1.352-12.469L61.5 88.625l28.29-28.293 37.73 37.738A10.003 10.003 0 00140 99.426a128.86 128.86 0 0142.14-17.52 10.01 10.01 0 007.86-9.773V18.832h40v53.3c0 4.7 3.273 8.766 7.86 9.774A128.86 128.86 0 01280 99.426a10.003 10.003 0 0012.48-1.356l37.73-37.738 28.282 28.293-37.73 37.727a10.003 10.003 0 00-1.352 12.48 128.623 128.623 0 0117.508 42.148 10.008 10.008 0 009.77 7.864H400v40h-53.313c-4.695 0-8.761 3.27-9.769 7.86a128.501 128.501 0 01-17.508 42.128 10.007 10.007 0 001.352 12.473l37.738 37.73-28.29 28.3-37.73-37.741a10.007 10.007 0 00-12.48-1.352 128.561 128.561 0 01-42.129 17.52c-4.594 1-7.871 5.07-7.871 9.77v53.3h-40v-53.3c0-4.7-3.277-8.77-7.871-9.77A128.561 128.561 0 01140 318.242a10.007 10.007 0 00-12.48 1.352l-37.73 37.742-28.282-28.293 37.73-37.73a10.002 10.002 0 001.352-12.481 128.697 128.697 0 01-17.52-42.148 9.995 9.995 0 00-9.77-7.852H20zm0 0"/><path d="M210 288.832c44.184 0 80-35.812 80-80 0-44.184-35.816-80-80-80s-80 35.816-80 80c.047 44.16 35.84 79.953 80 80zm0-140c33.133 0 60 26.867 60 60 0 33.137-26.867 60-60 60s-60-26.863-60-60c.035-33.125 26.875-59.965 60-60zm0 0"/><path d="M210 318.832c60.75 0 110-49.246 110-110 0-60.75-49.25-110-110-110s-110 49.25-110 110c.074 60.723 49.277 109.93 110 110zm0-200c49.707 0 90 40.293 90 90s-40.293 90-90 90-90-40.293-90-90c.055-49.68 40.316-89.945 90-90zm0 0M570 458.832v-80c0-5.52-4.477-10-10-10h-20v-80c0-5.52-4.477-10-10-10h-90c-5.523 0-10 4.48-10 10v80h-50c-5.523 0-10 4.48-10 10v80H50c-27.602.035-49.965 22.398-50 50v20c.035 27.605 22.398 49.969 50 50h520c27.602-.031 49.965-22.395 50-50v-20c-.035-27.602-22.398-49.965-50-50zm-20 0h-70v-70h70zm-100-160h70v70h-70zm-60 90h70v70h-70zm210 140c0 16.57-13.434 30-30 30H50c-16.566 0-30-13.43-30-30v-20c0-16.566 13.434-30 30-30h520c16.566 0 30 13.434 30 30zm0 0"/><path d="M310 488.832c-16.566 0-30 13.434-30 30 0 16.57 13.434 30 30 30s30-13.43 30-30c0-16.566-13.434-30-30-30zm0 40c-5.523 0-10-4.477-10-10 0-5.52 4.477-10 10-10s10 4.48 10 10c0 5.523-4.477 10-10 10zm0 0M210 488.832c-16.566 0-30 13.434-30 30 0 16.57 13.434 30 30 30s30-13.43 30-30c0-16.566-13.434-30-30-30zm0 40c-5.523 0-10-4.477-10-10 0-5.52 4.477-10 10-10s10 4.48 10 10c0 5.523-4.477 10-10 10zm0 0M410 488.832c-16.566 0-30 13.434-30 30 0 16.57 13.434 30 30 30s30-13.43 30-30c0-16.566-13.434-30-30-30zm0 40c-5.523 0-10-4.477-10-10 0-5.52 4.477-10 10-10s10 4.48 10 10c0 5.523-4.477 10-10 10zm0 0M110 488.832c-16.566 0-30 13.434-30 30 0 16.57 13.434 30 30 30s30-13.43 30-30c0-16.566-13.434-30-30-30zm0 40c-5.523 0-10-4.477-10-10 0-5.52 4.477-10 10-10s10 4.48 10 10c0 5.523-4.477 10-10 10zm0 0M510 488.832c-16.566 0-30 13.434-30 30 0 16.57 13.434 30 30 30s30-13.43 30-30c0-16.566-13.434-30-30-30zm0 40c-5.523 0-10-4.477-10-10 0-5.52 4.477-10 10-10s10 4.48 10 10c0 5.523-4.477 10-10 10zm0 0"/></svg>