<svg height="512" width="512" xmlns="http://www.w3.org/2000/svg"><path d="M496.5 414.167H180.354c-3.62-43.84-38.679-78.899-82.52-82.52V15.501c0-8.547-6.953-15.5-15.5-15.5H15.5C6.953.001 0 6.954 0 15.501v76.396c0 4.143 3.358 7.5 7.5 7.5s7.5-3.357 7.5-7.5V15.501a.5.5 0 01.5-.5h66.834a.5.5 0 01.5.5v17.634H57.2c-4.142 0-7.5 3.357-7.5 7.5s3.358 7.5 7.5 7.5h25.633v18.132h-8.808c-4.142 0-7.5 3.357-7.5 7.5s3.358 7.5 7.5 7.5h8.808v18.132H57.2c-4.142 0-7.5 3.357-7.5 7.5s3.358 7.5 7.5 7.5h25.633v18.132h-8.808c-4.142 0-7.5 3.357-7.5 7.5s3.358 7.5 7.5 7.5h8.808v18.131H57.2c-4.142 0-7.5 3.357-7.5 7.5s3.358 7.5 7.5 7.5h25.633v18.132h-8.808c-4.142 0-7.5 3.357-7.5 7.5s3.358 7.5 7.5 7.5h8.808v18.138H57.2c-4.142 0-7.5 3.357-7.5 7.5s3.358 7.5 7.5 7.5h25.633v18.131h-8.808c-4.142 0-7.5 3.357-7.5 7.5s3.358 7.5 7.5 7.5h8.808V298.2H57.2c-4.142 0-7.5 3.357-7.5 7.5s3.358 7.5 7.5 7.5h25.633v18.135H15V121.896c0-4.143-3.358-7.5-7.5-7.5s-7.5 3.357-7.5 7.5v366.038C0 501.204 10.797 512 24.067 512H496.5c8.547 0 15.5-6.953 15.5-15.5v-66.833c0-8.547-6.953-15.5-15.5-15.5zM15 487.934V346.333h75.334c41.539 0 75.333 33.794 75.333 75.333V497h-141.6c-4.999 0-9.067-4.067-9.067-9.066zm482 8.566a.5.5 0 01-.5.5H180.667v-67.833h18.134V454.8c0 4.143 3.358 7.5 7.5 7.5s7.5-3.357 7.5-7.5v-25.633h18.132v8.808c0 4.143 3.358 7.5 7.5 7.5s7.5-3.357 7.5-7.5v-8.808h18.131V454.8c0 4.143 3.358 7.5 7.5 7.5s7.5-3.357 7.5-7.5v-25.633h18.132v8.808c0 4.143 3.358 7.5 7.5 7.5s7.5-3.357 7.5-7.5v-8.808h18.131V454.8c0 4.143 3.358 7.5 7.5 7.5s7.5-3.357 7.5-7.5v-25.633h18.132v8.808c0 4.143 3.358 7.5 7.5 7.5s7.5-3.357 7.5-7.5v-8.808h18.138V454.8c0 4.143 3.358 7.5 7.5 7.5s7.5-3.357 7.5-7.5v-25.633h18.13v8.808c0 4.143 3.358 7.5 7.5 7.5s7.5-3.357 7.5-7.5v-8.808h18.137V454.8c0 4.143 3.358 7.5 7.5 7.5s7.5-3.357 7.5-7.5v-25.633H496.5a.5.5 0 01.5.5z"/><path d="M90.334 397.6c-13.271 0-24.066 10.796-24.066 24.066 0 13.271 10.796 24.066 24.066 24.066s24.066-10.796 24.066-24.066S103.604 397.6 90.334 397.6zm0 33.132c-4.999 0-9.066-4.067-9.066-9.066s4.067-9.066 9.066-9.066 9.066 4.067 9.066 9.066-4.067 9.066-9.066 9.066z"/><path d="M90.334 364.467c-31.54 0-57.2 25.659-57.2 57.199s25.66 57.2 57.2 57.2 57.2-25.66 57.2-57.2c-.001-31.54-25.66-57.199-57.2-57.199zm0 99.399c-23.269 0-42.2-18.931-42.2-42.2 0-23.268 18.931-42.199 42.2-42.199s42.2 18.931 42.2 42.199c-.001 23.269-18.931 42.2-42.2 42.2zM214.864 143.605a7.468 7.468 0 004.98-1.895l21.447-19.063c3.096-2.752 3.375-7.492.623-10.588s-7.493-3.377-10.588-.623L209.878 130.5a7.5 7.5 0 004.986 13.105zM261.542 102.113a7.472 7.472 0 004.98-1.894l21.447-19.064c3.096-2.752 3.374-7.492.622-10.588s-7.493-3.377-10.588-.623l-21.447 19.063a7.5 7.5 0 004.986 13.106zM173.167 180.667h17.603a7.5 7.5 0 001.647-14.818 7.502 7.502 0 00-11.076-9.981l-13.156 11.694a7.5 7.5 0 004.982 13.105zM271.04 173.167a7.5 7.5 0 00-7.5-7.5h-32.807c-4.142 0-7.5 3.357-7.5 7.5s3.358 7.5 7.5 7.5h32.807a7.5 7.5 0 007.5-7.5zM300.523 362.9h14.244v18.133H305.7c-4.142 0-7.5 3.357-7.5 7.5s3.358 7.5 7.5 7.5h33.133c4.142 0 7.5-3.357 7.5-7.5s-3.358-7.5-7.5-7.5h-9.067V362.9h35.483c4.142 0 7.5-3.357 7.5-7.5s-3.358-7.5-7.5-7.5h-35.483V180.667h100.967V347.9H395.25c-4.142 0-7.5 3.357-7.5 7.5s3.358 7.5 7.5 7.5h42.983a7.5 7.5 0 007.5-7.5V180.667h25.633a7.5 7.5 0 004.983-13.106L329.767 37.265V15h9.066c4.142 0 7.5-3.357 7.5-7.5s-3.358-7.5-7.5-7.5H305.7c-4.142 0-7.5 3.357-7.5 7.5s3.358 7.5 7.5 7.5h9.067v22.264l-10.639 9.457a7.498 7.498 0 00-.622 10.588 7.477 7.477 0 005.608 2.517 7.473 7.473 0 004.98-1.895l.673-.599v108.333h-10.102c-4.142 0-7.5 3.357-7.5 7.5s3.358 7.5 7.5 7.5h10.102V347.9h-14.244c-4.142 0-7.5 3.357-7.5 7.5s3.358 7.5 7.5 7.5zM451.64 165.667H329.767V57.335zM254.009 362.9h21.304c4.142 0 7.5-3.357 7.5-7.5s-3.358-7.5-7.5-7.5h-21.304c-4.142 0-7.5 3.357-7.5 7.5s3.357 7.5 7.5 7.5zM206.3 362.9h21.744c4.142 0 7.5-3.357 7.5-7.5s-3.358-7.5-7.5-7.5H213.8v-14.244c0-4.143-3.358-7.5-7.5-7.5s-7.5 3.357-7.5 7.5V355.4a7.5 7.5 0 007.5 7.5zM206.3 301.54a7.5 7.5 0 007.5-7.5v-33.479c0-4.143-3.358-7.5-7.5-7.5s-7.5 3.357-7.5 7.5v33.479a7.5 7.5 0 007.5 7.5zM206.3 227.261a7.5 7.5 0 007.5-7.5v-21.744c0-4.143-3.358-7.5-7.5-7.5s-7.5 3.357-7.5 7.5v21.744a7.5 7.5 0 007.5 7.5z"/></svg>