<svg height="512pt" viewBox="-1 0 512 512" width="512pt" xmlns="http://www.w3.org/2000/svg"><path d="M10.895 512A10.895 10.895 0 01.387 498.23l33.285-121.546C12.949 339.21 2.023 296.82 2.039 253.789 2.098 113.848 115.98 0 255.91 0c67.871.027 131.645 26.465 179.578 74.434 47.926 47.972 74.309 111.742 74.29 179.558-.063 139.945-113.946 253.801-253.868 253.801h-.11c-40.87-.016-81.39-9.977-117.468-28.844L13.656 511.645c-.914.238-1.843.355-2.761.355zm0 0" fill="#e5e5e5"/><path d="M10.895 501.105l34.468-125.87c-21.261-36.84-32.445-78.63-32.43-121.442C12.989 119.859 121.98 10.895 255.91 10.895c64.992.027 125.996 25.324 171.871 71.238 45.871 45.914 71.125 106.945 71.102 171.855-.059 133.93-109.067 242.91-242.973 242.91-.008 0 .004 0 0 0h-.105c-40.664-.015-80.618-10.214-116.106-29.57zm134.77-77.75l7.378 4.372c31 18.398 66.543 28.128 102.789 28.148h.078c111.305 0 201.899-90.578 201.945-201.902.02-53.95-20.964-104.68-59.093-142.84-38.133-38.16-88.832-59.188-142.778-59.211C144.59 51.922 54 142.488 53.957 253.809c-.016 38.148 10.656 75.296 30.875 107.445l4.805 7.64-20.407 74.5zm0 0" fill="#fff"/><path d="M19.344 492.625l33.277-121.52c-20.531-35.562-31.324-75.91-31.312-117.234.05-129.297 105.273-234.488 234.558-234.488 62.75.027 121.645 24.449 165.922 68.773 44.29 44.324 68.664 103.242 68.64 165.899-.054 129.3-105.28 234.504-234.55 234.504-.012 0 .004 0 0 0h-.106c-39.253-.016-77.828-9.868-112.085-28.54zm0 0" fill="#64b161"/><g fill="#fff"><path d="M10.895 501.105l34.468-125.87c-21.261-36.84-32.445-78.63-32.43-121.442C12.989 119.859 121.98 10.895 255.91 10.895c64.992.027 125.996 25.324 171.871 71.238 45.871 45.914 71.125 106.945 71.102 171.855-.059 133.93-109.067 242.91-242.973 242.91-.008 0 .004 0 0 0h-.105c-40.664-.015-80.618-10.214-116.106-29.57zm134.77-77.75l7.378 4.372c31 18.398 66.543 28.128 102.789 28.148h.078c111.305 0 201.899-90.578 201.945-201.902.02-53.95-20.964-104.68-59.093-142.84-38.133-38.16-88.832-59.188-142.778-59.211C144.59 51.922 54 142.488 53.957 253.809c-.016 38.148 10.656 75.296 30.875 107.445l4.805 7.64-20.407 74.5zm0 0"/><path d="M195.184 152.246c-4.547-10.11-9.336-10.312-13.664-10.488-3.54-.153-7.59-.145-11.633-.145-4.047 0-10.625 1.524-16.188 7.598-5.566 6.074-21.254 20.762-21.254 50.633 0 29.875 21.758 58.738 24.793 62.793 3.035 4.05 42 67.308 103.707 91.644 51.285 20.227 61.72 16.203 72.852 15.192 11.133-1.012 35.918-14.688 40.976-28.864 5.063-14.175 5.063-26.324 3.543-28.867-1.52-2.527-5.566-4.047-11.636-7.082-6.07-3.035-35.918-17.726-41.485-19.75-5.566-2.027-9.613-3.035-13.66 3.043-4.05 6.07-15.676 19.742-19.219 23.79-3.543 4.058-7.086 4.566-13.156 1.527-6.07-3.043-25.625-9.45-48.82-30.133-18.047-16.09-30.235-35.965-33.777-42.043-3.54-6.07-.06-9.07 2.667-12.387 4.91-5.973 13.149-16.71 15.172-20.758 2.024-4.054 1.012-7.597-.504-10.637-1.52-3.035-13.32-33.058-18.714-45.066zm0 0" fill-rule="evenodd"/></g></svg>