<?xml version="1.0" standalone="no"?>
<!DOCTYPE svg PUBLIC "-//W3C//DTD SVG 20010904//EN"
 "http://www.w3.org/TR/2001/REC-SVG-20010904/DTD/svg10.dtd">
<svg version="1.0" xmlns="http://www.w3.org/2000/svg"
 width="500.000000pt" height="500.000000pt" viewBox="0 0 500.000000 500.000000"
 preserveAspectRatio="xMidYMid meet">
<metadata>
Created by potrace 1.11, written by Peter Selinger 2001-2013
</metadata>
<g transform="translate(0.000000,500.000000) scale(0.100000,-0.100000)"
fill="#000000" stroke="none">
<path d="M0 2500 l0 -2500 2500 0 2500 0 0 2500 0 2500 -2500 0 -2500 0 0
-2500z m1393 528 c18 -17 85 -190 261 -673 130 -358 236 -657 236 -666 0 -34
-22 -39 -170 -39 -129 0 -149 2 -163 18 -9 10 -34 65 -56 123 l-39 104 -268 0
-268 0 -38 -105 c-21 -58 -48 -113 -59 -123 -18 -14 -43 -17 -163 -17 -149 0
-166 5 -166 45 0 37 478 1326 497 1341 14 10 61 13 195 14 170 0 178 -1 201
-22z m1474 0 c184 -56 286 -153 328 -315 29 -111 11 -272 -40 -358 -34 -59
-107 -122 -179 -156 -94 -44 -193 -59 -387 -59 l-169 0 0 -229 c0 -195 -2
-232 -16 -245 -23 -23 -315 -23 -338 0 -14 14 -16 90 -16 684 0 607 2 670 16
685 15 15 53 16 383 12 292 -3 376 -7 418 -19z m1597 6 c21 -21 24 -265 3
-283 -9 -6 -84 -12 -203 -13 l-189 -3 -3 -529 c-1 -371 -6 -533 -13 -543 -18
-21 -312 -19 -333 3 -14 14 -16 77 -16 545 l0 529 -189 0 c-159 0 -192 3 -205
16 -23 22 -23 239 0 272 l15 22 559 0 c494 0 560 -2 574 -16z"/>
<path d="M1105 2458 c-48 -139 -90 -259 -93 -265 -3 -10 37 -13 182 -13 102 0
186 1 186 3 0 3 -161 462 -177 505 -8 20 -24 -20 -98 -230z"/>
<path d="M2420 2590 l0 -180 123 0 c174 1 220 15 271 84 31 41 30 147 -3 200
-39 63 -81 76 -248 76 l-143 0 0 -180z"/>
</g>
</svg>
