<svg version="1" xmlns="http://www.w3.org/2000/svg" width="682.667" height="682.667" viewBox="0 0 512.000000 512.000000"><path d="M83.9 1.3C80.1 4.2 80 5.5 80 60s.1 55.8 3.9 58.7c2.3 1.8 341.9 1.8 344.2 0 3.8-2.9 3.9-4.2 3.9-58.7s-.1-55.8-3.9-58.7C425.8-.5 86.2-.5 83.9 1.3zM248 60v44H96V16h152v44zm168 0v44H264V16h152v44z"/><path d="M130.6 58.6c-1.5 1.6-2.6 3.8-2.6 5.4 0 1.6 1.1 3.8 2.6 5.4l2.7 2.6h34.6c33.5 0 34.8-.1 36.9-2 4-3.8 3.7-9.3-.7-12.7-1.2-.9-10.6-1.2-36.2-1.3h-34.6l-2.7 2.6zM306.6 58.6c-1.5 1.6-2.6 3.8-2.6 5.4 0 1.6 1.1 3.8 2.6 5.4l2.7 2.6h34.6c33.5 0 34.8-.1 36.9-2 4-3.8 3.7-9.3-.7-12.7-1.2-.9-10.6-1.2-36.2-1.3h-34.6l-2.7 2.6zM99.1 138.1c-1.2 1.1-2.4 3.3-2.8 4.9-.3 1.9-2.2 4.2-5.2 6.5-14.5 11.4-14.4 25.7.3 37.2 2.5 1.9 4.6 4.3 4.6 5.3s-2.1 3.4-4.6 5.3c-8 6.2-12.4 14.5-11 20.3.9 3.3 4.5 6.4 7.7 6.4s7.9-4.4 7.9-7.5c0-1.5 1.6-3.5 4.6-5.8 14.8-11.5 14.8-25.8.2-37.3-2.7-2-4.8-4.4-4.8-5.4s2.1-3.4 4.6-5.3c10.5-8.2 14.3-18.6 8.8-24.1-3.2-3.2-7.2-3.4-10.3-.5zM138.6 138.6c-1.4 1.5-2.6 3.7-2.6 4.9 0 1.5-1.6 3.5-4.7 5.9-14.7 11.5-14.7 25.8.1 37.3 2.5 1.9 4.6 4.3 4.6 5.3s-2.1 3.4-4.6 5.3c-5.8 4.5-9.1 9-10.5 14.1-1.3 4.7-.6 7.9 2.3 10.6 4.3 4 11.2 1.2 12.5-5 .3-1.9 2.2-4.2 5-6.4 14.7-11.4 14.7-25.8.1-37.2-2.7-2-4.8-4.4-4.8-5.4s2.1-3.4 4.6-5.3c5.8-4.5 9.1-9 10.5-14.1 1.3-4.7.6-7.9-2.3-10.6-3-2.8-7-2.5-10.2.6zM178.6 138.6c-1.4 1.5-2.6 3.7-2.6 4.9 0 1.5-1.6 3.5-4.7 5.9-14.7 11.5-14.7 25.8.1 37.3 2.5 1.9 4.6 4.3 4.6 5.3s-2.1 3.4-4.6 5.3c-10.5 8.2-14.3 18.6-8.8 24.1 4.7 4.6 11.7 2.3 13.1-4.4.3-1.9 2.2-4.2 5-6.4 14.7-11.4 14.7-25.8.1-37.2-2.7-2-4.8-4.4-4.8-5.4s2.1-3.4 4.6-5.3c5.8-4.5 9.1-9 10.5-14.1 1.3-4.7.6-7.9-2.3-10.6-3-2.8-7-2.5-10.2.6zM365.4 217.5c-8.9 1.9-16 5.9-23 12.9-12.1 12.1-14.4 20.3-14.4 51.8V304H194.3l2.9-5.6 2.8-5.7v-26.9c0-27.4-.3-29.7-3.9-32.5-2.3-1.8-125.9-1.8-128.2 0-3.6 2.8-3.9 5.1-3.9 32.5v26.9l2.8 5.7 2.9 5.6H5.3l-2.7 2.6-2.6 2.7v197.4l2.6 2.7 2.7 2.6h250.6c195.4-.1 250.9-.3 252.2-1.3.9-.7 2.1-2.2 2.7-3.4 1.7-3.1 1.7-195.5 0-198.6-2.5-4.8.4-4.6-85.5-4.7H344v-16h5.3c5.5-.1 7.6-1.1 9.6-4.8 1.6-3 .7-6.5-2.1-9.2-1.6-1.5-3.5-2-7.6-2h-5.5l.5-7.8c.8-13.7 7.2-23.7 18.7-29.1 11.5-5.4 26.4-2.7 35.6 6.4 4.7 4.8 8.5 12.9 9.2 20 1 9.1 7.7 13.5 13.1 8.5 3.1-2.9 3.6-5.9 2.2-13.9-1.7-10.1-5.9-18.2-13.3-25.6-7.2-7.2-14.2-11.1-23.6-13.1-8-1.7-12.7-1.7-20.7.1zM184 268.6c0 20.8-.4 23.4-3.9 26.1-2.2 1.7-91.8 1.8-95.4.2-4.2-1.9-4.7-4.7-4.7-26.4V248h104v20.6zM40.5 322c.4 1.2 1.6 3 2.8 4 2 1.9 3.6 2 28.8 2h26.6l2.7-2.6c1.4-1.5 2.6-3.3 2.6-4 0-1.1 2.5-1.4 12-1.4h12v64H16v-64h11.9c11.2 0 12 .1 12.6 2zM368 408v88H144V320h224v88zm40-86.6c0 .7 1.2 2.5 2.6 4l2.7 2.6h26.6c25.2 0 26.8-.1 28.8-2 1.2-1 2.4-2.8 2.8-4 .6-1.9 1.4-2 12.6-2H496v64H384v-64h12c9.5 0 12 .3 12 1.4zM128 448v48H16v-96h112v48zm368 0v48H384v-96h112v48z"/><path d="M154.6 346.6l-2.6 2.7v85.4l2.6 2.7 2.7 2.6h98.6c104.3-.1 100.4.1 102.9-4.7 1.7-3.1 1.7-83.5 0-86.6-2.5-4.8 1.4-4.6-102.9-4.7h-98.6l-2.7 2.6zM344 392v32H168v-64h176v32zM202.6 466.6c-1.5 1.6-2.6 3.8-2.6 5.4 0 1.6 1.1 3.8 2.6 5.4l2.7 2.6h50.6c49.6 0 50.8 0 52.9-2 4-3.8 3.7-9.3-.7-12.7-1.2-.9-14-1.2-52.2-1.3h-50.6l-2.7 2.6z"/></svg>