<?xml version="1.0" standalone="no"?>
<!DOCTYPE svg PUBLIC "-//W3C//DTD SVG 20010904//EN"
 "http://www.w3.org/TR/2001/REC-SVG-20010904/DTD/svg10.dtd">
<svg version="1.0" xmlns="http://www.w3.org/2000/svg"
 width="700.000000pt" height="700.000000pt" viewBox="0 0 700.000000 700.000000"
 preserveAspectRatio="xMidYMid meet">
<metadata>
Created by potrace 1.11, written by Peter Selinger 2001-2013
</metadata>
<g transform="translate(0.000000,700.000000) scale(0.100000,-0.100000)"
fill="#000000" stroke="none">
<path d="M1701 6987 c-13 -6 -34 -25 -45 -40 -19 -26 -21 -43 -23 -215 -1
-103 -2 -189 -2 -192 -1 -3 -35 -6 -76 -7 -42 -2 -84 -7 -94 -13 -16 -8 -87
-90 -222 -255 -16 -19 -79 -94 -123 -145 -11 -14 -39 -48 -61 -75 -21 -28 -42
-52 -46 -55 -4 -3 -31 -35 -61 -71 -52 -64 -188 -228 -231 -279 -12 -14 -40
-48 -62 -75 -22 -28 -45 -54 -51 -60 -6 -5 -38 -44 -71 -85 -34 -41 -69 -84
-80 -95 -10 -11 -25 -29 -33 -41 -14 -19 -90 -111 -115 -138 -39 -42 -68 -91
-70 -120 -4 -40 27 -94 65 -113 36 -18 3564 -19 3599 0 67 34 85 119 37 181
-14 19 -31 40 -38 48 -7 7 -31 36 -53 63 -21 28 -49 61 -62 75 -12 14 -50 59
-84 100 -34 41 -78 95 -99 120 -21 25 -66 79 -100 120 -95 114 -202 242 -210
250 -3 3 -22 26 -43 52 -21 26 -43 53 -50 60 -7 7 -30 36 -52 63 -22 28 -50
61 -61 75 -34 39 -96 113 -131 156 -17 22 -40 48 -50 59 -10 11 -44 52 -76 92
-77 95 -92 104 -185 106 l-76 2 -1 192 c0 178 -1 193 -21 220 -39 53 -41 53
-444 53 -278 0 -381 -3 -399 -13z"/>
<path d="M4277 5474 c-17 -6 -42 -26 -54 -44 l-23 -33 0 -1413 c0 -1124 -3
-1414 -12 -1415 -7 0 -136 -1 -287 -1 -191 0 -275 3 -280 11 -4 6 -6 32 -6 58
l2 46 74 2 c41 0 83 6 94 12 85 47 81 170 -6 207 -24 10 -165 13 -645 12
l-614 -1 -31 -31 c-35 -36 -47 -95 -27 -133 25 -46 63 -65 136 -67 37 -1 72
-2 77 -3 6 -1 10 -26 10 -56 0 -48 -3 -55 -20 -56 -99 -3 -1136 0 -1142 4 -10
6 -10 87 -1 102 3 6 35 10 70 9 34 0 74 5 88 12 62 30 85 95 55 157 -31 65
-21 64 -680 62 -324 -1 -600 -2 -612 -3 -35 -3 -82 -49 -89 -90 -5 -27 -2 -46
15 -78 26 -48 46 -57 138 -59 35 -1 66 -5 70 -9 4 -4 7 -29 8 -56 0 -49 -1
-50 -30 -51 -16 0 -128 -1 -248 -1 -206 -1 -220 -2 -250 -22 -17 -12 -37 -33
-44 -46 -10 -20 -13 -283 -13 -1213 0 -1318 -4 -1239 65 -1271 30 -14 358 -16
3440 -16 3405 0 3408 0 3440 20 18 11 38 35 44 52 8 22 11 794 11 2672 0 2494
-1 2643 -18 2676 -33 68 57 64 -1375 64 -905 1 -1307 -2 -1330 -10z m-2997
-2793 c7 -1 5 -99 -2 -107 -8 -7 -443 -8 -455 -1 -9 6 -9 89 0 104 4 6 427 10
457 4z m2095 -3 c4 -4 8 -30 9 -57 l1 -51 -35 -1 c-44 0 -353 0 -401 0 l-35 1
2 58 c1 31 3 57 3 57 340 0 451 -2 456 -7z"/>
</g>
</svg>
